<svg xmlns="http://www.w3.org/2000/svg" viewBox="0 0 92 122" width="92" height="122" fill="none"><path d="M86.44 44.95C86.38 55.05 83.6 63.13 78.57 70.59C72.61 79.45 66.89 88.47 61.18 97.48C57.01 104.06 53.02 110.76 48.93 117.4C47.46 119.78 44.76 119.75 43.26 117.35C35.58 105.07 27.91 92.77 20.2 80.51C17.52 76.26 14.61 72.17 11.97 67.9C6.97 59.83 5 51.01 6.08 41.58C7.61 28.2 14.15 17.86 25.49 10.67C33.03 5.88 41.37 4.14 50.27 5.02C67.93 6.76 82.9 20.76 85.86 39.25C86.22 41.49 86.32 43.77 86.44 44.95" fill="#ffffff"/><path d="M46.13 57.27C41.38 57.26 37.55 61.19 37.54 66.08C37.53 70.86 41.39 74.79 46.12 74.82C50.77 74.84 54.67 70.86 54.68 66.07C54.69 61.21 50.87 57.28 46.13 57.27M66.87 65.47C66.84 70.67 65.41 74.82 62.82 78.67C59.75 83.23 56.81 87.87 53.87 92.51C51.72 95.9 49.67 99.35 47.56 102.76C46.81 103.99 45.41 103.97 44.64 102.74C40.69 96.41 36.75 90.08 32.77 83.77C31.4 81.59 29.9 79.48 28.54 77.28C25.96 73.13 24.95 68.59 25.5 63.73C26.29 56.84 29.66 51.52 35.5 47.82C39.38 45.36 43.67 44.46 48.25 44.91C57.34 45.81 65.05 53.02 66.57 62.53C66.76 63.69 66.81 64.86 66.87 65.47" fill="#605d3c"/></svg>