<svg xmlns="http://www.w3.org/2000/svg" viewBox="0 0 80 79" width="80" height="79" fill="none"><path d="M75.99 39.64C75.99 59.36 60.01 75.34 40.29 75.34C20.57 75.34 4.59 59.36 4.59 39.64C4.59 19.93 20.57 3.94 40.29 3.94C60.01 3.94 75.99 19.93 75.99 39.64" fill="#605d3c"/><path d="M53.3 58.61L57.93 58.61L57.93 33.08L53.3 33.08ZM53.3 33.08M59.23 45.9C59.23 50.22 59.23 54.54 59.23 58.86C59.23 59.88 59.15 59.96 58.12 59.96C56.44 59.96 54.75 59.94 53.07 59.97C52.29 59.99 51.97 59.73 51.97 58.91C52 50.21 51.99 41.51 51.98 32.81C51.98 32.05 52.26 31.75 53.02 31.76C54.7 31.79 56.39 31.76 58.07 31.77C59.13 31.78 59.24 31.89 59.24 32.93C59.24 37.25 59.24 41.57 59.24 45.9Z" fill="#f0e8db"/><path d="M55.74 20.97C54.46 21.25 53.28 21.5 52.11 21.76C51.66 21.86 51.15 21.99 51.01 21.38C50.85 20.71 51.4 20.64 51.89 20.53C53.53 20.17 55.16 19.79 56.81 19.42C57.94 19.17 58.12 19.3 58.16 20.5C58.22 22.24 58.26 23.98 58.32 25.72C58.33 26.2 58.2 26.64 57.67 26.55C57.42 26.51 57.09 26.05 57.08 25.77C57.01 24.51 57.05 23.26 57.05 22L56.77 21.93C56.25 22.6 55.72 23.26 55.21 23.93C49.92 30.88 43.61 36.63 35.63 40.37C31.56 42.28 27.3 43.51 22.81 43.89C22.27 43.94 21.46 44.22 21.41 43.33C21.36 42.52 22.15 42.67 22.68 42.62C29.25 42.02 35.17 39.66 40.67 36.09C46.64 32.21 51.32 27.02 55.54 21.38C55.6 21.3 55.63 21.19 55.74 20.97" fill="#f0e8db"/><path d="M47.59 41.41L43.01 41.41L43.01 58.62L47.59 58.62ZM47.59 58.62M48.88 50.03C48.88 53 48.87 55.98 48.89 58.95C48.9 59.73 48.61 59.99 47.85 59.97C46.14 59.93 44.42 59.94 42.71 59.97C42.01 59.98 41.7 59.75 41.7 59C41.72 53.05 41.72 47.1 41.69 41.16C41.69 40.35 41.97 40.05 42.78 40.07C44.41 40.11 46.03 40.09 47.66 40.09C48.77 40.09 48.88 40.19 48.88 41.27C48.88 44.19 48.88 47.11 48.88 50.03Z" fill="#f0e8db"/><path d="M37.32 46.66L32.87 46.66L32.87 58.63L37.32 58.63ZM37.32 58.63M38.64 52.73C38.64 54.78 38.62 56.82 38.66 58.87C38.67 59.65 38.42 59.99 37.6 59.97C35.89 59.93 34.18 59.95 32.47 59.97C31.82 59.98 31.55 59.73 31.55 59.08C31.56 54.8 31.56 50.51 31.55 46.22C31.55 45.52 31.88 45.29 32.54 45.3C34.22 45.32 35.9 45.33 37.59 45.3C38.35 45.28 38.65 45.6 38.64 46.34C38.63 48.47 38.64 50.6 38.64 52.73Z" fill="#f0e8db"/><path d="M22.67 58.62L27.16 58.62L27.16 49.65L22.67 49.65ZM22.67 49.65M28.47 54.23C28.47 55.83 28.46 57.43 28.48 59.02C28.5 59.71 28.23 59.98 27.54 59.97C25.78 59.94 24.01 59.95 22.25 59.97C21.61 59.97 21.33 59.72 21.34 59.07C21.35 55.79 21.35 52.52 21.34 49.24C21.34 48.58 21.66 48.34 22.28 48.35C24.04 48.36 25.81 48.37 27.57 48.35C28.22 48.35 28.49 48.65 28.48 49.27C28.47 50.93 28.48 52.58 28.48 54.23Z" fill="#f0e8db"/></svg>